<mxfile host="app.diagrams.net" modified="2024-06-06T14:20:52.410Z" agent="Mozilla/5.0 (Windows NT 10.0; Win64; x64; rv:126.0) Gecko/20100101 Firefox/126.0" etag="ECotL8QhtHdlYU1TwWSX" version="24.4.15" type="device">
  <diagram name="Page-1" id="AZ3WZEwg5QrilqC2rqDg">
    <mxGraphModel dx="1136" dy="998" grid="1" gridSize="10" guides="1" tooltips="1" connect="1" arrows="1" fold="1" page="1" pageScale="1" pageWidth="850" pageHeight="1100" math="0" shadow="0">
      <root>
        <mxCell id="0" />
        <mxCell id="1" parent="0" />
        <mxCell id="6FH3GafapizWjMq4wIy3-1" value="" style="swimlane;startSize=0;" vertex="1" parent="1">
          <mxGeometry x="260" y="120" width="500" height="570" as="geometry" />
        </mxCell>
        <mxCell id="6FH3GafapizWjMq4wIy3-7" value="Aktywuj Aplikacje" style="ellipse;whiteSpace=wrap;html=1;" vertex="1" parent="6FH3GafapizWjMq4wIy3-1">
          <mxGeometry x="80" y="40" width="120" height="80" as="geometry" />
        </mxCell>
        <mxCell id="6FH3GafapizWjMq4wIy3-8" value="Wylacz Aplikacje" style="ellipse;whiteSpace=wrap;html=1;" vertex="1" parent="6FH3GafapizWjMq4wIy3-1">
          <mxGeometry x="80" y="140" width="120" height="80" as="geometry" />
        </mxCell>
        <mxCell id="6FH3GafapizWjMq4wIy3-9" value="Wyswietl Dane" style="ellipse;whiteSpace=wrap;html=1;" vertex="1" parent="6FH3GafapizWjMq4wIy3-1">
          <mxGeometry x="80" y="320" width="120" height="80" as="geometry" />
        </mxCell>
        <mxCell id="6FH3GafapizWjMq4wIy3-11" value="Sortuj Dane" style="ellipse;whiteSpace=wrap;html=1;" vertex="1" parent="6FH3GafapizWjMq4wIy3-1">
          <mxGeometry x="80" y="420" width="120" height="80" as="geometry" />
        </mxCell>
        <mxCell id="6FH3GafapizWjMq4wIy3-2" value="&lt;div&gt;Monitoring Utylizacji Oprogramowania&lt;/div&gt;&lt;div&gt;&lt;br&gt;&lt;/div&gt;" style="text;html=1;align=center;verticalAlign=middle;whiteSpace=wrap;rounded=0;" vertex="1" parent="1">
          <mxGeometry x="500" y="110" width="260" height="10" as="geometry" />
        </mxCell>
        <mxCell id="6FH3GafapizWjMq4wIy3-3" value="Pracownik" style="shape=umlActor;verticalLabelPosition=bottom;verticalAlign=top;html=1;outlineConnect=0;" vertex="1" parent="1">
          <mxGeometry x="120" y="200" width="30" height="60" as="geometry" />
        </mxCell>
        <mxCell id="6FH3GafapizWjMq4wIy3-10" value="Manadżer" style="shape=umlActor;verticalLabelPosition=bottom;verticalAlign=top;html=1;outlineConnect=0;" vertex="1" parent="1">
          <mxGeometry x="120" y="480" width="30" height="60" as="geometry" />
        </mxCell>
        <mxCell id="6FH3GafapizWjMq4wIy3-14" value="Aplikacja" style="shape=umlActor;verticalLabelPosition=bottom;verticalAlign=top;html=1;outlineConnect=0;" vertex="1" parent="1">
          <mxGeometry x="910" y="180" width="30" height="60" as="geometry" />
        </mxCell>
        <mxCell id="6FH3GafapizWjMq4wIy3-15" value="Czy należy dodać aplikację oraz wtyczkę jako aktorów?" style="text;html=1;align=center;verticalAlign=middle;whiteSpace=wrap;rounded=0;" vertex="1" parent="1">
          <mxGeometry x="900" y="85" width="180" height="60" as="geometry" />
        </mxCell>
        <mxCell id="6FH3GafapizWjMq4wIy3-16" value="Wtyczka" style="shape=umlActor;verticalLabelPosition=bottom;verticalAlign=top;html=1;outlineConnect=0;" vertex="1" parent="1">
          <mxGeometry x="910" y="460" width="30" height="60" as="geometry" />
        </mxCell>
        <mxCell id="6FH3GafapizWjMq4wIy3-18" value="&lt;div&gt;Pobierz Oprogramowania&lt;/div&gt;" style="ellipse;whiteSpace=wrap;html=1;" vertex="1" parent="1">
          <mxGeometry x="1040" y="140" width="120" height="80" as="geometry" />
        </mxCell>
        <mxCell id="6FH3GafapizWjMq4wIy3-19" value="Zapisz Sesje" style="ellipse;whiteSpace=wrap;html=1;" vertex="1" parent="1">
          <mxGeometry x="1040" y="250" width="120" height="80" as="geometry" />
        </mxCell>
        <mxCell id="6FH3GafapizWjMq4wIy3-20" value="Pobierz Sesje" style="ellipse;whiteSpace=wrap;html=1;" vertex="1" parent="1">
          <mxGeometry x="1040" y="400" width="120" height="80" as="geometry" />
        </mxCell>
        <mxCell id="6FH3GafapizWjMq4wIy3-21" value="Wprowadz Sesje" style="ellipse;whiteSpace=wrap;html=1;" vertex="1" parent="1">
          <mxGeometry x="1040" y="510" width="120" height="80" as="geometry" />
        </mxCell>
        <mxCell id="6FH3GafapizWjMq4wIy3-23" value="" style="endArrow=none;html=1;rounded=0;exitX=0.5;exitY=0.5;exitDx=0;exitDy=0;exitPerimeter=0;entryX=0;entryY=0.5;entryDx=0;entryDy=0;" edge="1" parent="1" source="6FH3GafapizWjMq4wIy3-3" target="6FH3GafapizWjMq4wIy3-7">
          <mxGeometry width="50" height="50" relative="1" as="geometry">
            <mxPoint x="200" y="180" as="sourcePoint" />
            <mxPoint x="250" y="130" as="targetPoint" />
          </mxGeometry>
        </mxCell>
        <mxCell id="6FH3GafapizWjMq4wIy3-24" value="" style="endArrow=none;html=1;rounded=0;exitX=0.5;exitY=0.5;exitDx=0;exitDy=0;exitPerimeter=0;entryX=0;entryY=0.5;entryDx=0;entryDy=0;" edge="1" parent="1" source="6FH3GafapizWjMq4wIy3-3" target="6FH3GafapizWjMq4wIy3-8">
          <mxGeometry width="50" height="50" relative="1" as="geometry">
            <mxPoint x="160" y="380" as="sourcePoint" />
            <mxPoint x="210" y="330" as="targetPoint" />
          </mxGeometry>
        </mxCell>
        <mxCell id="6FH3GafapizWjMq4wIy3-25" value="" style="endArrow=none;html=1;rounded=0;exitX=0.5;exitY=0.5;exitDx=0;exitDy=0;exitPerimeter=0;entryX=0;entryY=0.5;entryDx=0;entryDy=0;" edge="1" parent="1" source="6FH3GafapizWjMq4wIy3-10" target="6FH3GafapizWjMq4wIy3-9">
          <mxGeometry width="50" height="50" relative="1" as="geometry">
            <mxPoint x="290" y="440" as="sourcePoint" />
            <mxPoint x="340" y="390" as="targetPoint" />
          </mxGeometry>
        </mxCell>
        <mxCell id="6FH3GafapizWjMq4wIy3-26" value="" style="endArrow=none;html=1;rounded=0;exitX=0.5;exitY=0.5;exitDx=0;exitDy=0;exitPerimeter=0;entryX=0;entryY=0.5;entryDx=0;entryDy=0;" edge="1" parent="1" source="6FH3GafapizWjMq4wIy3-10" target="6FH3GafapizWjMq4wIy3-11">
          <mxGeometry width="50" height="50" relative="1" as="geometry">
            <mxPoint x="180" y="530" as="sourcePoint" />
            <mxPoint x="310" y="520" as="targetPoint" />
          </mxGeometry>
        </mxCell>
        <mxCell id="6FH3GafapizWjMq4wIy3-27" value="" style="endArrow=none;html=1;rounded=0;exitX=0.5;exitY=0.5;exitDx=0;exitDy=0;exitPerimeter=0;entryX=0;entryY=0.5;entryDx=0;entryDy=0;" edge="1" parent="1" source="6FH3GafapizWjMq4wIy3-16" target="6FH3GafapizWjMq4wIy3-20">
          <mxGeometry width="50" height="50" relative="1" as="geometry">
            <mxPoint x="950" y="440" as="sourcePoint" />
            <mxPoint x="1000" y="390" as="targetPoint" />
          </mxGeometry>
        </mxCell>
        <mxCell id="6FH3GafapizWjMq4wIy3-28" value="" style="endArrow=none;html=1;rounded=0;exitX=0.5;exitY=0.5;exitDx=0;exitDy=0;exitPerimeter=0;entryX=0;entryY=0.5;entryDx=0;entryDy=0;" edge="1" parent="1" source="6FH3GafapizWjMq4wIy3-16" target="6FH3GafapizWjMq4wIy3-21">
          <mxGeometry width="50" height="50" relative="1" as="geometry">
            <mxPoint x="1000" y="680" as="sourcePoint" />
            <mxPoint x="1050" y="630" as="targetPoint" />
          </mxGeometry>
        </mxCell>
        <mxCell id="6FH3GafapizWjMq4wIy3-29" value="" style="endArrow=none;html=1;rounded=0;exitX=0.5;exitY=0.5;exitDx=0;exitDy=0;exitPerimeter=0;entryX=0;entryY=0.5;entryDx=0;entryDy=0;" edge="1" parent="1" source="6FH3GafapizWjMq4wIy3-14" target="6FH3GafapizWjMq4wIy3-18">
          <mxGeometry width="50" height="50" relative="1" as="geometry">
            <mxPoint x="950" y="380" as="sourcePoint" />
            <mxPoint x="1000" y="330" as="targetPoint" />
          </mxGeometry>
        </mxCell>
        <mxCell id="6FH3GafapizWjMq4wIy3-30" value="" style="endArrow=none;html=1;rounded=0;entryX=0;entryY=0.5;entryDx=0;entryDy=0;exitX=0.5;exitY=0.5;exitDx=0;exitDy=0;exitPerimeter=0;" edge="1" parent="1" source="6FH3GafapizWjMq4wIy3-14" target="6FH3GafapizWjMq4wIy3-19">
          <mxGeometry width="50" height="50" relative="1" as="geometry">
            <mxPoint x="960" y="230" as="sourcePoint" />
            <mxPoint x="1030" y="220" as="targetPoint" />
          </mxGeometry>
        </mxCell>
      </root>
    </mxGraphModel>
  </diagram>
</mxfile>
